# xmcd CD database file
#
# Track frame offsets:
#	150
#	24076
#	43401
#	59913
#	77340
#	99411
#	115496
#	132661
#	148544
#	172778
#	191690
#	213178
#
# Disc length: 3102 seconds
#
# Revision: 0
# Processed by: cddbd v1.5.2PL0 Copyright (c) Steve Scherf et al.
# Submitted via: CDex 1.51
#
DISCID=a70c1c0c
DTITLE=Urban, Keith - Golden Road
DYEAR=1900
DGENRE=Country
TTITLE0=Somebody Like You 
TTITLE1=Who Wouldn't Wanna Be Me
TTITLE2=Keith Urban - Golden Road - 03 - Whenever I Run
TTITLE3=What About Me
TTITLE4=You'll Think Of Me
TTITLE5=Jeans On
TTITLE6=You Look Good In My Shirt
TTITLE7=You're Not Alone Tonight
TTITLE8=You Won
TTITLE9=Song For Dad
TTITLE10=Rainin On Sunday
TTITLE11=You're Not My God
EXTD=
EXTT0=
EXTT1=
EXTT2=
EXTT3=
EXTT4=
EXTT5=
EXTT6=
EXTT7=
EXTT8=
EXTT9=
EXTT10=
EXTT11=
PLAYORDER=
